<mxfile host="app.diagrams.net" modified="2024-02-26T10:29:26.335Z" agent="Mozilla/5.0 (Macintosh; Intel Mac OS X 10_15_7) AppleWebKit/537.36 (KHTML, like Gecko) Chrome/121.0.0.0 Safari/537.36" version="23.1.1" etag="dBcu_T2-rj_v4F-IthOx" type="github">
  <diagram name="第 1 页" id="4gp7VLAdORdXg6sr8I46">
    <mxGraphModel>
      <root>
        <mxCell id="0" />
        <mxCell id="1" parent="0" />
      </root>
    </mxGraphModel>
  </diagram>
</mxfile>
